<svg width="1450" height="1212" viewBox="0 0 1450 1212" fill="none" xmlns="http://www.w3.org/2000/svg">
<path d="M608.019 588.034C543.626 523.633 543.626 419.217 608.019 354.815C672.412 290.414 776.814 290.414 841.207 354.815C905.6 419.217 905.6 523.633 841.207 588.034C776.814 652.436 672.412 652.436 608.019 588.034Z" fill="#4C3CDD" fill-opacity="0.5"/>
<path d="M274 933C195.023 933 131 868.977 131 790C131 711.023 195.023 647 274 647C352.977 647 417 711.023 417 790C417 868.977 352.977 933 274 933Z" fill="#4C3CDD" fill-opacity="0.5"/>
<path d="M1127.5 1134C1055.43 1134 997 1075.8 997 1004C997 932.203 1055.43 874 1127.5 874C1199.57 874 1258 932.203 1258 1004C1258 1075.8 1199.57 1134 1127.5 1134Z" fill="#4C3CDD" fill-opacity="0.5"/>
<path d="M914.981 799.033C940.228 824.322 981.345 824.322 1006.95 799.033L1281.06 524.095C1306.31 498.805 1306.31 457.619 1281.06 431.967C1255.82 406.678 1214.7 406.678 1189.09 431.967L914.62 706.905C889.734 732.556 889.734 773.743 914.981 799.033Z" fill="#EDF5FF" fill-opacity="0.5" stroke="#045CEA" stroke-width="10" stroke-miterlimit="10"/>
<path d="M23.37 1184.64C47.8047 1209.12 87.5985 1209.12 112.382 1184.64L377.674 918.529C402.109 894.051 402.109 854.186 377.674 829.359C353.239 804.88 313.445 804.88 288.662 829.359L23.0209 1095.47C-1.06479 1120.3 -1.06479 1160.16 23.37 1184.64Z" fill="#FFD9E7" fill-opacity="0.5" stroke="#AE0241" stroke-width="10" stroke-miterlimit="10"/>
<path d="M515.934 1188.13C541.118 1213.29 582.133 1213.29 607.678 1188.13L881.111 914.546C906.296 889.381 906.296 848.398 881.111 822.874C855.927 797.709 814.912 797.709 789.367 822.874L515.574 1096.45C490.749 1121.98 490.749 1162.96 515.934 1188.13Z" fill="#FFF2EC" fill-opacity="0.5" stroke="#D80700" stroke-width="10" stroke-miterlimit="10"/>
<path d="M776.143 1188.13C801.248 1213.29 842.134 1213.29 867.598 1188.13L1140.17 914.546C1165.28 889.381 1165.28 848.398 1140.17 822.874C1115.07 797.709 1074.18 797.709 1048.72 822.874L775.784 1096.45C750.679 1121.98 750.679 1162.96 776.143 1188.13Z" fill="#EDFFFD" fill-opacity="0.5" stroke="#00776B" stroke-width="10" stroke-miterlimit="10"/>
<path d="M667.874 792.126C693.039 817.291 734.022 817.291 759.546 792.126L1033.13 518.546C1058.29 493.381 1058.29 452.398 1033.13 426.874C1007.96 401.709 966.978 401.709 941.454 426.874L667.874 700.454C642.709 725.978 642.709 766.961 667.874 792.126Z" fill="#FFF4E5" fill-opacity="0.5" stroke="#A56000" stroke-width="10" stroke-miterlimit="10"/>
<path d="M267.793 1184.27C292.79 1209.24 333.5 1209.24 358.854 1184.27L630.252 912.723C655.249 887.746 655.249 847.068 630.252 821.733C605.255 796.756 564.545 796.756 539.191 821.733L267.436 1093.28C242.796 1118.61 242.796 1159.29 267.793 1184.27Z" fill="#FFFCE2" fill-opacity="0.5" stroke="#766D24" stroke-width="10" stroke-miterlimit="10"/>
<path d="M415.191 792.109C440.359 817.297 481.346 817.297 506.873 792.109L780.124 518.645C805.292 493.458 805.292 452.438 780.124 426.891C754.956 401.703 713.969 401.703 688.441 426.891L414.831 700.715C389.663 725.902 389.663 766.922 415.191 792.109Z" fill="#FCDEFF" fill-opacity="0.5" stroke="#9B0AAB" stroke-width="10" stroke-miterlimit="10"/>
<path d="M812.967 389.126C838.257 414.291 879.444 414.291 905.095 389.126L1180.03 115.546C1205.32 90.3814 1205.32 49.3983 1180.03 23.8738C1154.74 -1.29126 1113.56 -1.29126 1087.91 23.8738L812.967 297.454C787.678 322.978 787.678 363.961 812.967 389.126Z" fill="#EFE5FF" fill-opacity="0.5" stroke="#7C21FB" stroke-width="10" stroke-miterlimit="10"/>
<path d="M1062.14 394.126C1087.25 419.291 1128.13 419.291 1153.6 394.126L1426.17 120.546C1451.28 95.3814 1451.28 54.3983 1426.17 28.8738C1401.07 3.70874 1360.18 3.70874 1334.72 28.8738L1061.78 302.454C1036.68 327.978 1036.68 368.961 1062.14 394.126Z" fill="#EDFFFD" fill-opacity="0.5" stroke="#00776B" stroke-width="10" stroke-miterlimit="10"/>
</svg>
