<svg width="342" height="138" viewBox="0 0 342 138" fill="none" xmlns="http://www.w3.org/2000/svg">
<path d="M6.83228 125.829H2.36481V124.732H12.5182V125.829H8.05068V137.671H6.83228V125.829Z" fill="#4C3CDD"/>
<path d="M21.3833 130.434H23.9678C24.6078 130.434 25.1246 130.355 25.5185 130.197C25.9246 130.038 26.2384 129.843 26.46 129.612C26.6815 129.38 26.8292 129.13 26.903 128.862C26.9892 128.594 27.0322 128.351 27.0322 128.131C27.0322 127.912 26.9892 127.668 26.903 127.4C26.8292 127.132 26.6815 126.883 26.46 126.651C26.2384 126.42 25.9246 126.225 25.5185 126.066C25.1246 125.908 24.6078 125.829 23.9678 125.829H21.3833V130.434ZM20.1649 124.732H23.5986C23.7709 124.732 24.0047 124.738 24.3001 124.751C24.5954 124.763 24.9154 124.799 25.26 124.86C25.6046 124.921 25.9554 125.019 26.3123 125.153C26.6692 125.287 26.9892 125.482 27.2722 125.737C27.5553 125.993 27.7891 126.316 27.9737 126.706C28.1583 127.096 28.2507 127.571 28.2507 128.131C28.2507 128.753 28.1399 129.264 27.9184 129.667C27.7091 130.069 27.4384 130.398 27.1061 130.653C26.7861 130.897 26.4292 131.08 26.0354 131.202C25.6415 131.323 25.2662 131.409 24.9093 131.458L28.7122 137.671H27.3276L23.654 131.531H21.3833V137.671H20.1649V124.732Z" fill="#4C3CDD"/>
<path d="M40.7443 124.732H41.9996L47.5009 137.671H46.1348L44.7133 134.235H37.7906L36.3138 137.671H35.04L40.7443 124.732ZM41.3166 126.048L38.2706 133.139H44.2703L41.3166 126.048Z" fill="#4C3CDD"/>
<path d="M54.8403 124.732H58.8832C60.0154 124.732 60.9754 124.872 61.763 125.153C62.5507 125.421 63.203 125.768 63.7199 126.194C64.2491 126.621 64.6614 127.096 64.9567 127.62C65.2644 128.131 65.4859 128.625 65.6213 129.1C65.769 129.575 65.8613 130.008 65.8982 130.398C65.9351 130.775 65.9536 131.043 65.9536 131.202C65.9536 131.36 65.9351 131.634 65.8982 132.024C65.8613 132.402 65.769 132.828 65.6213 133.303C65.4859 133.778 65.2644 134.278 64.9567 134.802C64.6614 135.314 64.2491 135.783 63.7199 136.209C63.203 136.635 62.5507 136.989 61.763 137.269C60.9754 137.537 60.0154 137.671 58.8832 137.671H54.8403V124.732ZM56.0587 136.575H58.5693C59.4308 136.575 60.237 136.471 60.9877 136.264C61.7384 136.045 62.3907 135.716 62.9445 135.277C63.4983 134.838 63.9352 134.284 64.2552 133.614C64.5752 132.932 64.7352 132.128 64.7352 131.202C64.7352 130.276 64.5752 129.478 64.2552 128.808C63.9352 128.125 63.4983 127.565 62.9445 127.126C62.3907 126.688 61.7384 126.365 60.9877 126.158C60.237 125.938 59.4308 125.829 58.5693 125.829H56.0587V136.575Z" fill="#4C3CDD"/>
<path d="M74.3202 124.732H75.5386V137.671H74.3202V124.732Z" fill="#4C3CDD"/>
<path d="M84.7461 124.732H86.3152L94.2718 136.063H94.3087V124.732H95.5271V137.671H93.9579L86.0014 126.34H85.9645V137.671H84.7461V124.732Z" fill="#4C3CDD"/>
<path d="M115.526 136.83C114.763 137.257 113.969 137.555 113.144 137.726C112.332 137.909 111.501 138 110.652 138C109.655 138 108.739 137.836 107.902 137.507C107.077 137.165 106.369 136.696 105.779 136.099C105.188 135.49 104.726 134.771 104.394 133.943C104.062 133.102 103.896 132.189 103.896 131.202C103.896 130.215 104.062 129.307 104.394 128.479C104.726 127.65 105.188 126.937 105.779 126.34C106.369 125.731 107.077 125.256 107.902 124.915C108.739 124.574 109.655 124.403 110.652 124.403C112.597 124.403 114.166 125 115.36 126.194L114.474 127.108C114.277 126.877 114.031 126.663 113.735 126.468C113.452 126.261 113.138 126.091 112.794 125.957C112.461 125.811 112.111 125.701 111.741 125.628C111.372 125.542 111.009 125.5 110.652 125.5C109.803 125.5 109.034 125.646 108.345 125.938C107.668 126.231 107.089 126.633 106.609 127.145C106.129 127.656 105.76 128.259 105.502 128.954C105.243 129.648 105.114 130.398 105.114 131.202C105.114 132.006 105.243 132.755 105.502 133.449C105.76 134.144 106.129 134.747 106.609 135.259C107.089 135.77 107.668 136.172 108.345 136.465C109.034 136.757 109.803 136.903 110.652 136.903C111.354 136.903 112.012 136.849 112.628 136.739C113.243 136.629 113.803 136.428 114.307 136.136V131.786H111.169V130.69H115.526V136.83Z" fill="#4C3CDD"/>
<path d="M138.068 125.829H133.6V124.732H143.754V125.829H139.286V137.671H138.068V125.829Z" fill="#4C3CDD"/>
<path d="M151.401 124.732H159.394V125.829H152.619V130.434H158.969V131.531H152.619V136.575H159.689V137.671H151.401V124.732Z" fill="#4C3CDD"/>
<path d="M178.736 135.643C178.109 136.483 177.383 137.086 176.558 137.452C175.734 137.817 174.841 138 173.881 138C172.884 138 171.968 137.836 171.131 137.507C170.306 137.165 169.598 136.696 169.008 136.099C168.417 135.49 167.956 134.771 167.623 133.943C167.291 133.102 167.125 132.189 167.125 131.202C167.125 130.215 167.291 129.307 167.623 128.479C167.956 127.65 168.417 126.937 169.008 126.34C169.598 125.731 170.306 125.256 171.131 124.915C171.968 124.574 172.884 124.403 173.881 124.403C174.767 124.403 175.592 124.562 176.355 124.878C177.13 125.183 177.807 125.701 178.386 126.432L177.389 127.254C176.983 126.645 176.46 126.2 175.82 125.92C175.192 125.64 174.546 125.5 173.881 125.5C173.032 125.5 172.263 125.646 171.574 125.938C170.897 126.231 170.318 126.633 169.838 127.145C169.359 127.656 168.989 128.259 168.731 128.954C168.472 129.648 168.343 130.398 168.343 131.202C168.343 132.006 168.472 132.755 168.731 133.449C168.989 134.144 169.359 134.747 169.838 135.259C170.318 135.77 170.897 136.172 171.574 136.465C172.263 136.757 173.032 136.903 173.881 136.903C174.214 136.903 174.558 136.867 174.915 136.794C175.272 136.709 175.617 136.587 175.949 136.428C176.294 136.258 176.62 136.051 176.927 135.807C177.235 135.551 177.506 135.247 177.74 134.893L178.736 135.643Z" fill="#4C3CDD"/>
<path d="M186.603 124.732H187.821V130.434H195.131V124.732H196.35V137.671H195.131V131.531H187.821V137.671H186.603V124.732Z" fill="#4C3CDD"/>
<path d="M205.556 124.732H207.125L215.081 136.063H215.118V124.732H216.337V137.671H214.768L206.811 126.34H206.774V137.671H205.556V124.732Z" fill="#4C3CDD"/>
<path d="M224.705 131.202C224.705 130.215 224.872 129.307 225.204 128.479C225.536 127.65 225.998 126.937 226.588 126.34C227.179 125.731 227.887 125.256 228.711 124.915C229.548 124.574 230.465 124.403 231.462 124.403C232.459 124.403 233.37 124.574 234.194 124.915C235.031 125.256 235.745 125.731 236.336 126.34C236.926 126.937 237.388 127.65 237.72 128.479C238.052 129.307 238.219 130.215 238.219 131.202C238.219 132.189 238.052 133.102 237.72 133.943C237.388 134.771 236.926 135.49 236.336 136.099C235.745 136.696 235.031 137.165 234.194 137.507C233.37 137.836 232.459 138 231.462 138C230.465 138 229.548 137.836 228.711 137.507C227.887 137.165 227.179 136.696 226.588 136.099C225.998 135.49 225.536 134.771 225.204 133.943C224.872 133.102 224.705 132.189 224.705 131.202ZM225.924 131.202C225.924 132.006 226.053 132.755 226.311 133.449C226.57 134.144 226.939 134.747 227.419 135.259C227.899 135.77 228.477 136.172 229.154 136.465C229.844 136.757 230.613 136.903 231.462 136.903C232.311 136.903 233.074 136.757 233.751 136.465C234.44 136.172 235.025 135.77 235.505 135.259C235.985 134.747 236.354 134.144 236.612 133.449C236.871 132.755 237 132.006 237 131.202C237 130.398 236.871 129.648 236.612 128.954C236.354 128.259 235.985 127.656 235.505 127.145C235.025 126.633 234.44 126.231 233.751 125.938C233.074 125.646 232.311 125.5 231.462 125.5C230.613 125.5 229.844 125.646 229.154 125.938C228.477 126.231 227.899 126.633 227.419 127.145C226.939 127.656 226.57 128.259 226.311 128.954C226.053 129.648 225.924 130.398 225.924 131.202Z" fill="#4C3CDD"/>
<path d="M246.581 124.732H247.799V136.575H253.891V137.671H246.581V124.732Z" fill="#4C3CDD"/>
<path d="M260.593 131.202C260.593 130.215 260.759 129.307 261.091 128.479C261.423 127.65 261.885 126.937 262.476 126.34C263.066 125.731 263.774 125.256 264.599 124.915C265.435 124.574 266.352 124.403 267.349 124.403C268.346 124.403 269.257 124.574 270.081 124.915C270.918 125.256 271.632 125.731 272.223 126.34C272.813 126.937 273.275 127.65 273.607 128.479C273.94 129.307 274.106 130.215 274.106 131.202C274.106 132.189 273.94 133.102 273.607 133.943C273.275 134.771 272.813 135.49 272.223 136.099C271.632 136.696 270.918 137.165 270.081 137.507C269.257 137.836 268.346 138 267.349 138C266.352 138 265.435 137.836 264.599 137.507C263.774 137.165 263.066 136.696 262.476 136.099C261.885 135.49 261.423 134.771 261.091 133.943C260.759 133.102 260.593 132.189 260.593 131.202ZM261.811 131.202C261.811 132.006 261.94 132.755 262.199 133.449C262.457 134.144 262.826 134.747 263.306 135.259C263.786 135.77 264.365 136.172 265.042 136.465C265.731 136.757 266.5 136.903 267.349 136.903C268.198 136.903 268.961 136.757 269.638 136.465C270.327 136.172 270.912 135.77 271.392 135.259C271.872 134.747 272.241 134.144 272.5 133.449C272.758 132.755 272.887 132.006 272.887 131.202C272.887 130.398 272.758 129.648 272.5 128.954C272.241 128.259 271.872 127.656 271.392 127.145C270.912 126.633 270.327 126.231 269.638 125.938C268.961 125.646 268.198 125.5 267.349 125.5C266.5 125.5 265.731 125.646 265.042 125.938C264.365 126.231 263.786 126.633 263.306 127.145C262.826 127.656 262.457 128.259 262.199 128.954C261.94 129.648 261.811 130.398 261.811 131.202Z" fill="#4C3CDD"/>
<path d="M293.249 136.83C292.486 137.257 291.692 137.555 290.868 137.726C290.055 137.909 289.225 138 288.375 138C287.379 138 286.462 137.836 285.625 137.507C284.8 137.165 284.093 136.696 283.502 136.099C282.911 135.49 282.45 134.771 282.117 133.943C281.785 133.102 281.619 132.189 281.619 131.202C281.619 130.215 281.785 129.307 282.117 128.479C282.45 127.65 282.911 126.937 283.502 126.34C284.093 125.731 284.8 125.256 285.625 124.915C286.462 124.574 287.379 124.403 288.375 124.403C290.32 124.403 291.889 125 293.083 126.194L292.197 127.108C292 126.877 291.754 126.663 291.458 126.468C291.175 126.261 290.862 126.091 290.517 125.957C290.185 125.811 289.834 125.701 289.465 125.628C289.095 125.542 288.732 125.5 288.375 125.5C287.526 125.5 286.757 125.646 286.068 125.938C285.391 126.231 284.813 126.633 284.333 127.145C283.853 127.656 283.483 128.259 283.225 128.954C282.967 129.648 282.837 130.398 282.837 131.202C282.837 132.006 282.967 132.755 283.225 133.449C283.483 134.144 283.853 134.747 284.333 135.259C284.813 135.77 285.391 136.172 286.068 136.465C286.757 136.757 287.526 136.903 288.375 136.903C289.077 136.903 289.735 136.849 290.351 136.739C290.966 136.629 291.526 136.428 292.031 136.136V131.786H288.892V130.69H293.249V136.83Z" fill="#4C3CDD"/>
<path d="M302.467 124.732H303.685V137.671H302.467V124.732Z" fill="#4C3CDD"/>
<path d="M312.893 124.732H320.886V125.829H314.111V130.434H320.462V131.531H314.111V136.575H321.182V137.671H312.893V124.732Z" fill="#4C3CDD"/>
<path d="M329.817 135.277C330.137 135.825 330.549 136.233 331.054 136.501C331.571 136.769 332.155 136.903 332.808 136.903C333.214 136.903 333.595 136.843 333.952 136.721C334.309 136.599 334.617 136.428 334.875 136.209C335.146 135.99 335.355 135.728 335.503 135.423C335.663 135.106 335.743 134.753 335.743 134.363C335.743 133.912 335.644 133.541 335.448 133.248C335.263 132.956 335.011 132.718 334.691 132.536C334.371 132.341 334.008 132.176 333.601 132.042C333.208 131.908 332.795 131.774 332.365 131.64C331.946 131.506 331.534 131.354 331.128 131.183C330.734 131.013 330.377 130.794 330.057 130.525C329.737 130.245 329.479 129.898 329.282 129.484C329.097 129.07 329.005 128.558 329.005 127.949C329.005 127.376 329.116 126.87 329.337 126.432C329.571 125.981 329.879 125.609 330.26 125.317C330.654 125.012 331.103 124.787 331.608 124.641C332.112 124.483 332.642 124.403 333.195 124.403C333.909 124.403 334.568 124.531 335.171 124.787C335.786 125.031 336.315 125.445 336.758 126.03L335.706 126.779C335.398 126.353 335.035 126.036 334.617 125.829C334.211 125.609 333.725 125.5 333.158 125.5C332.765 125.5 332.389 125.555 332.032 125.664C331.675 125.762 331.362 125.914 331.091 126.121C330.832 126.316 330.623 126.566 330.463 126.87C330.303 127.175 330.223 127.534 330.223 127.949C330.223 128.594 330.389 129.094 330.722 129.447C331.054 129.788 331.466 130.063 331.958 130.27C332.463 130.465 333.005 130.641 333.583 130.8C334.174 130.946 334.715 131.147 335.208 131.403C335.712 131.659 336.131 132.018 336.463 132.481C336.795 132.932 336.961 133.559 336.961 134.363C336.961 134.948 336.851 135.466 336.629 135.917C336.407 136.367 336.106 136.751 335.724 137.068C335.355 137.373 334.924 137.604 334.432 137.762C333.94 137.921 333.429 138 332.9 138C332.038 138 331.245 137.854 330.519 137.561C329.792 137.257 329.171 136.751 328.654 136.045L329.817 135.277Z" fill="#4C3CDD"/>
<path fill-rule="evenodd" clip-rule="evenodd" d="M75.3719 5.01758C82.44 5.01758 88.1698 10.7474 88.1698 17.8154V30.7718C88.1698 39.6457 95.3635 46.8394 104.237 46.8394H104.854C113.387 46.8394 120.305 39.9218 120.305 31.3884V17.8154C120.305 10.7474 126.035 5.01758 133.103 5.01758C140.171 5.01758 145.901 10.7474 145.901 17.8154V31.3884C145.901 54.0579 127.524 72.4351 104.854 72.4351H104.237C81.2274 72.4351 62.5741 53.7818 62.5741 30.7718V17.8154C62.5741 10.7474 68.3039 5.01758 75.3719 5.01758Z" fill="#4C3CDD"/>
<path fill-rule="evenodd" clip-rule="evenodd" d="M133.103 9.7251C140.171 9.7251 145.901 15.4549 145.901 22.5229V65.0715C145.901 91.9626 124.101 113.762 97.2102 113.762H95.0086C87.9405 113.762 82.2108 108.032 82.2108 100.964C82.2108 93.8962 87.9405 88.1664 95.0086 88.1664H97.2102C109.965 88.1664 120.305 77.8265 120.305 65.0715V22.5229C120.305 15.4549 126.035 9.7251 133.103 9.7251Z" fill="url(#paint0_linear)"/>
<path fill-rule="evenodd" clip-rule="evenodd" d="M152.561 47.4045C152.561 23.84 171.938 4.98877 195.224 4.98877C218.51 4.98877 237.887 23.84 237.887 47.4045V101.058C237.887 108.159 232.131 113.915 225.029 113.915C217.928 113.915 212.172 108.159 212.172 101.058V47.4045C212.172 38.3202 204.587 30.7042 195.224 30.7042C185.861 30.7042 178.276 38.3202 178.276 47.4045V101.058C178.276 108.159 172.52 113.915 165.419 113.915C158.317 113.915 152.561 108.159 152.561 101.058V47.4045Z" fill="#4C3CDD"/>
<path fill-rule="evenodd" clip-rule="evenodd" d="M152.561 47.4045C152.561 23.84 171.938 4.98877 195.224 4.98877C218.51 4.98877 237.887 23.84 237.887 47.4045V101.058C237.887 108.159 232.131 113.915 225.029 113.915C217.928 113.915 212.172 108.159 212.172 101.058V47.4045C212.172 38.3202 204.587 30.7042 195.224 30.7042C185.861 30.7042 178.276 38.3202 178.276 47.4045V101.058C178.276 108.159 172.52 113.915 165.419 113.915C158.317 113.915 152.561 108.159 152.561 101.058V47.4045Z" fill="url(#paint1_linear)"/>
<rect x="25.7155" y="114.058" width="25.7154" height="109.069" rx="12.8577" transform="rotate(180 25.7155 114.058)" fill="#662020"/>
<rect x="25.7155" y="114.058" width="25.7154" height="109.069" rx="12.8577" transform="rotate(180 25.7155 114.058)" fill="#4C3CDD"/>
<rect x="260.642" y="118.988" width="25.8014" height="131.246" rx="12.9007" transform="rotate(-141.698 260.642 118.988)" fill="#4C3CDD"/>
<rect x="260.642" y="118.988" width="25.8014" height="131.246" rx="12.9007" transform="rotate(-141.698 260.642 118.988)" fill="url(#paint2_linear)"/>
<rect width="25.8014" height="131.246" rx="12.9007" transform="matrix(0.784759 -0.619801 -0.619801 -0.784759 321.741 118.988)" fill="#662020"/>
<rect width="25.8014" height="131.246" rx="12.9007" transform="matrix(0.784759 -0.619801 -0.619801 -0.784759 321.741 118.988)" fill="#4C3CDD"/>
<circle cx="324.004" cy="17.9787" r="12.9157" fill="#4C3CDD"/>
<ellipse cx="132.863" cy="17.9943" rx="12.8577" ry="13.0055" fill="#4C3CDD"/>
<circle cx="164.819" cy="100.968" r="12.9157" fill="#190B9F"/>
<circle cx="165.41" cy="101.058" r="12.9157" fill="#4C3CDD"/>
<rect x="6.10352e-05" y="114.058" width="25.7155" height="73.0082" rx="12.8577" transform="rotate(-90 6.10352e-05 114.058)" fill="#4C3CDD"/>
<rect x="6.10352e-05" y="114.058" width="25.7155" height="73.0082" rx="12.8577" transform="rotate(-90 6.10352e-05 114.058)" fill="url(#paint3_linear)"/>
<circle cx="60.1451" cy="100.968" r="12.9157" fill="#4C3CDD"/>
<defs>
<linearGradient id="paint0_linear" x1="114.056" y1="9.7251" x2="114.056" y2="113.762" gradientUnits="userSpaceOnUse">
<stop offset="0.139216" stop-color="#150B70"/>
<stop offset="0.413387" stop-color="#4C3CDD"/>
</linearGradient>
<linearGradient id="paint1_linear" x1="195.224" y1="4.98877" x2="195.224" y2="113.915" gradientUnits="userSpaceOnUse">
<stop stop-color="#4C3CDD"/>
<stop offset="1" stop-color="#160C73"/>
</linearGradient>
<linearGradient id="paint2_linear" x1="273.543" y1="118.988" x2="273.543" y2="250.235" gradientUnits="userSpaceOnUse">
<stop stop-color="#4C3CDD"/>
<stop offset="1" stop-color="#090058"/>
</linearGradient>
<linearGradient id="paint3_linear" x1="12.8578" y1="114.058" x2="12.8578" y2="187.066" gradientUnits="userSpaceOnUse">
<stop offset="0.318568" stop-color="#4C3CDD"/>
<stop offset="1" stop-color="#180E77"/>
</linearGradient>
</defs>
</svg>
