<svg width="95" height="33" viewBox="0 0 95 33" fill="none" xmlns="http://www.w3.org/2000/svg">
<path fill-rule="evenodd" clip-rule="evenodd" d="M20.7546 1.38184C22.7009 1.38184 24.2786 2.9596 24.2786 4.90588V8.47357C24.2786 10.9171 26.2595 12.898 28.703 12.898H28.8728C31.2226 12.898 33.1275 10.9931 33.1275 8.64338V4.90588C33.1275 2.9596 34.7052 1.38184 36.6515 1.38184C38.5978 1.38184 40.1756 2.9596 40.1756 4.90588V8.64338C40.1756 14.8857 35.1152 19.9461 28.8728 19.9461H28.703C22.367 19.9461 17.2305 14.8097 17.2305 8.47357V4.90588C17.2305 2.9596 18.8083 1.38184 20.7546 1.38184Z" fill="#4C3CDD"/>
<path fill-rule="evenodd" clip-rule="evenodd" d="M36.6515 2.67773C38.5978 2.67773 40.1755 4.2555 40.1755 6.20178V17.918C40.1755 25.3228 34.1728 31.3256 26.768 31.3256H26.1617C24.2155 31.3256 22.6377 29.7478 22.6377 27.8016C22.6377 25.8553 24.2155 24.2775 26.1617 24.2775H26.768C30.2802 24.2775 33.1275 21.4303 33.1275 17.918V6.20178C33.1275 4.2555 34.7052 2.67773 36.6515 2.67773Z" fill="url(#paint0_linear)"/>
<path fill-rule="evenodd" clip-rule="evenodd" d="M42.0095 13.0532C42.0095 6.56444 47.3453 1.37354 53.7573 1.37354C60.1694 1.37354 65.5052 6.56445 65.5052 13.0532V27.8272C65.5052 29.7826 63.92 31.3678 61.9646 31.3678C60.0092 31.3678 58.4241 29.7826 58.4241 27.8272V13.0532C58.4241 10.5517 56.3356 8.4546 53.7573 8.4546C51.1791 8.4546 49.0906 10.5517 49.0906 13.0532V27.8272C49.0906 29.7826 47.5054 31.3678 45.5501 31.3678C43.5947 31.3678 42.0095 29.7826 42.0095 27.8272V13.0532Z" fill="#4C3CDD"/>
<path fill-rule="evenodd" clip-rule="evenodd" d="M42.0095 13.0532C42.0095 6.56444 47.3453 1.37354 53.7573 1.37354C60.1694 1.37354 65.5052 6.56445 65.5052 13.0532V27.8272C65.5052 29.7826 63.92 31.3678 61.9646 31.3678C60.0092 31.3678 58.4241 29.7826 58.4241 27.8272V13.0532C58.4241 10.5517 56.3356 8.4546 53.7573 8.4546C51.1791 8.4546 49.0906 10.5517 49.0906 13.0532V27.8272C49.0906 29.7826 47.5054 31.3678 45.5501 31.3678C43.5947 31.3678 42.0095 29.7826 42.0095 27.8272V13.0532Z" fill="url(#paint1_linear)"/>
<rect x="7.08105" y="31.4072" width="7.08106" height="30.0335" rx="3.54053" transform="rotate(180 7.08105 31.4072)" fill="#662020"/>
<rect x="7.08105" y="31.4072" width="7.08106" height="30.0335" rx="3.54053" transform="rotate(180 7.08105 31.4072)" fill="#4C3CDD"/>
<rect x="71.771" y="32.7651" width="7.10472" height="36.1403" rx="3.55236" transform="rotate(-141.698 71.771 32.7651)" fill="#4C3CDD"/>
<rect x="71.771" y="32.7651" width="7.10472" height="36.1403" rx="3.55236" transform="rotate(-141.698 71.771 32.7651)" fill="url(#paint2_linear)"/>
<rect width="7.10472" height="36.1403" rx="3.55236" transform="matrix(0.784759 -0.619801 -0.619801 -0.784759 88.5952 32.7651)" fill="#662020"/>
<rect width="7.10472" height="36.1403" rx="3.55236" transform="matrix(0.784759 -0.619801 -0.619801 -0.784759 88.5952 32.7651)" fill="#4C3CDD"/>
<circle cx="89.2184" cy="4.95054" r="3.5565" fill="#4C3CDD"/>
<ellipse cx="36.5855" cy="4.95476" rx="3.54053" ry="3.58123" fill="#4C3CDD"/>
<circle cx="45.3849" cy="27.8031" r="3.5565" fill="#190B9F"/>
<circle cx="45.5476" cy="27.8275" r="3.5565" fill="#4C3CDD"/>
<rect y="31.4072" width="7.08107" height="20.1037" rx="3.54053" transform="rotate(-90 0 31.4072)" fill="#4C3CDD"/>
<rect y="31.4072" width="7.08107" height="20.1037" rx="3.54053" transform="rotate(-90 0 31.4072)" fill="url(#paint3_linear)"/>
<circle cx="16.5617" cy="27.8031" r="3.5565" fill="#4C3CDD"/>
<defs>
<linearGradient id="paint0_linear" x1="31.4066" y1="2.67773" x2="31.4066" y2="31.3256" gradientUnits="userSpaceOnUse">
<stop offset="0.139216" stop-color="#150B70"/>
<stop offset="0.413387" stop-color="#4C3CDD"/>
</linearGradient>
<linearGradient id="paint1_linear" x1="53.7573" y1="1.37354" x2="53.7573" y2="31.3678" gradientUnits="userSpaceOnUse">
<stop stop-color="#4C3CDD"/>
<stop offset="1" stop-color="#160C73"/>
</linearGradient>
<linearGradient id="paint2_linear" x1="75.3234" y1="32.7651" x2="75.3234" y2="68.9054" gradientUnits="userSpaceOnUse">
<stop stop-color="#4C3CDD"/>
<stop offset="1" stop-color="#090058"/>
</linearGradient>
<linearGradient id="paint3_linear" x1="3.54053" y1="31.4072" x2="3.54053" y2="51.5109" gradientUnits="userSpaceOnUse">
<stop offset="0.318568" stop-color="#4C3CDD"/>
<stop offset="1" stop-color="#180E77"/>
</linearGradient>
</defs>
</svg>
